<svg width="24" height="24" viewBox="0 0 24 24" fill="none" xmlns="http://www.w3.org/2000/svg">
<path d="M12 1C13.3261 1 14.5979 1.52678 15.5355 2.46447C16.4732 3.40215 17 4.67392 17 6C17 7.32608 16.4732 8.59785 15.5355 9.53553C14.5979 10.4732 13.3261 11 12 11C10.6739 11 9.40215 10.4732 8.46447 9.53553C7.52678 8.59785 7 7.32608 7 6C7 4.67392 7.52678 3.40215 8.46447 2.46447C9.40215 1.52678 10.6739 1 12 1ZM12 16C15.1935 16 18.034 16.6488 20.039 17.6513C22.1036 18.6836 23 19.9251 23 21V23H1V21C1 19.9251 1.89637 18.6836 3.96096 17.6513C5.966 16.6488 8.80646 16 12 16Z" fill="#231F20" stroke="#231F20" stroke-width="2"/>
</svg>
