<svg width="24" height="25" viewBox="0 0 24 25" fill="none" xmlns="http://www.w3.org/2000/svg">
<path d="M12 1.5C13.3261 1.5 14.5979 2.02678 15.5355 2.96447C16.4732 3.90215 17 5.17392 17 6.5C17 7.82608 16.4732 9.09785 15.5355 10.0355C14.5979 10.9732 13.3261 11.5 12 11.5C10.6739 11.5 9.40215 10.9732 8.46447 10.0355C7.52678 9.09785 7 7.82608 7 6.5C7 5.17392 7.52678 3.90215 8.46447 2.96447C9.40215 2.02678 10.6739 1.5 12 1.5ZM12 16.5C15.1935 16.5 18.034 17.1488 20.039 18.1513C22.1036 19.1836 23 20.4251 23 21.5V23.5H1V21.5C1 20.4251 1.89637 19.1836 3.96096 18.1513C5.966 17.1488 8.80646 16.5 12 16.5Z" stroke="#231F20" stroke-width="2"/>
</svg>
