<svg width="144" height="61" viewBox="0 0 144 61" fill="none" xmlns="http://www.w3.org/2000/svg">
<path d="M14.9226 24.5627C17.5479 25.9453 25.2855 30.9067 25.2855 41.6427C25.2855 55.4693 17.3406 61 8.35943 61H1.79624C0.621776 61 0 60.1053 0 58.7227V2.27733C0 0.894667 0.483603 0 1.58898 0H10.3629C17.7552 0 22.3839 4.392 22.3839 9.84133C22.3839 14.7213 18.7914 20.0893 14.9226 24.5627ZM5.5269 29.1987C8.4976 26.352 16.3734 18.3813 16.3734 11.3867C16.3734 6.75067 14.0245 3.25333 9.25755 3.25333H7.11588C6.0105 3.25333 5.5269 4.148 5.5269 5.53067V29.1987ZM9.05029 57.584C14.2318 57.584 19.6205 52.0533 19.6205 42.7C19.6205 33.3467 14.1627 29.1173 12.021 27.7347C9.25755 30.5813 6.77045 32.696 5.5269 33.7533V55.3067C5.5269 56.6893 6.14867 57.584 7.32314 57.584H9.05029Z" fill="#231F20"/>
<path d="M38.1681 59.0576C38.1681 60.2345 37.7576 61 36.8148 61H34.9861C33.9863 61 33.454 60.2345 33.454 59.0576V10.913C33.454 9.73607 33.9863 8.97058 34.9861 8.97058H36.8148C37.7576 8.97058 38.1681 9.73607 38.1681 10.913V59.0576Z" fill="#231F20"/>
<path d="M63.3317 24.5627C65.957 25.9453 73.6946 30.9067 73.6946 41.6427C73.6946 55.4693 65.7497 61 56.7685 61H50.2053C49.0309 61 48.4091 60.1053 48.4091 58.7227V2.27733C48.4091 0.894667 48.8927 0 49.9981 0H58.772C66.1642 0 70.793 4.392 70.793 9.84133C70.793 14.7213 67.2005 20.0893 63.3317 24.5627ZM53.936 29.1987C56.9067 26.352 64.7825 18.3813 64.7825 11.3867C64.7825 6.75067 62.4336 3.25333 57.6666 3.25333H55.525C54.4196 3.25333 53.936 4.148 53.936 5.53067V29.1987ZM57.4594 57.584C62.6408 57.584 68.0296 52.0533 68.0296 42.7C68.0296 33.3467 62.5718 29.1173 60.4301 27.7347C57.6666 30.5813 55.1795 32.696 53.936 33.7533V55.3067C53.936 56.6893 54.5578 57.584 55.7322 57.584H57.4594Z" fill="#231F20"/>
<path d="M86.5772 59.0576C86.5772 60.2345 86.1667 61 85.2239 61H83.3952C82.3954 61 81.8631 60.2345 81.8631 59.0576V10.913C81.8631 9.73607 82.3954 8.97058 83.3952 8.97058H85.2239C86.1667 8.97058 86.5772 9.73607 86.5772 10.913V59.0576Z" fill="#231F20"/>
<path d="M102.341 38.552V55.3067C102.341 56.6893 102.963 57.7467 104.137 57.7467H113.809C114.984 57.7467 115.744 57.9093 115.744 59.292C115.744 60.6747 114.984 61 113.809 61H98.6104C97.4359 61 96.8141 60.1053 96.8141 58.7227V2.27733C96.8141 0.894667 97.2977 0 98.4031 0H112.428C113.602 0 114.362 0.325333 114.362 1.708C114.362 3.09067 113.602 3.25333 112.428 3.25333H103.93C102.825 3.25333 102.341 4.148 102.341 5.53067V35.2987H110.355C111.529 35.2987 112.289 35.5427 112.289 36.9253C112.289 38.308 111.529 38.552 110.355 38.552H102.341Z" fill="#231F20"/>
<path d="M130.597 38.552V55.3067C130.597 56.6893 131.219 57.7467 132.394 57.7467H142.066C143.24 57.7467 144 57.9093 144 59.292C144 60.6747 143.24 61 142.066 61H126.867C125.692 61 125.07 60.1053 125.07 58.7227V2.27733C125.07 0.894667 125.554 0 126.659 0H140.684C141.858 0 142.618 0.325333 142.618 1.708C142.618 3.09067 141.858 3.25333 140.684 3.25333H132.186C131.081 3.25333 130.597 4.148 130.597 5.53067V35.2987H138.611C139.786 35.2987 140.546 35.5427 140.546 36.9253C140.546 38.308 139.786 38.552 138.611 38.552H130.597Z" fill="#231F20"/>
<path d="M34.6284 1.31089C35.1567 2.01419 35.2014 2.67921 35.4372 2.66485C35.7094 2.6505 35.6647 1.77976 36.189 1.02862C36.6319 0.392306 37.5544 -0.253577 38.3306 0.110031C39.1881 0.516698 39.436 1.99027 39.2653 2.96627C39.1312 3.73654 38.7208 4.25803 38.2006 4.92305C37.6154 5.66462 37.3187 5.74595 36.7539 6.47795C36.2824 7.09034 35.9898 7.6836 35.8192 8.08548C35.5103 7.63576 35.0917 7.09991 34.5431 6.57364C34.0026 6.05693 33.4824 5.68854 33.0516 5.4254C32.9501 5.32493 31.487 3.81787 31.8162 2.01897C31.8284 1.94721 32.1088 0.521482 32.9338 0.306188C33.7181 0.105247 34.5146 1.16258 34.6284 1.31568V1.31089Z" fill="#B76567"/>
<path d="M82.9807 1.31089C83.509 2.01419 83.5537 2.67921 83.7894 2.66485C84.0616 2.6505 84.0169 1.77976 84.5412 1.02862C84.9842 0.392306 85.9067 -0.253577 86.6829 0.110031C87.5403 0.516698 87.7882 1.99027 87.6176 2.96627C87.4835 3.73654 87.073 4.25803 86.5528 4.92305C85.9676 5.66462 85.671 5.74595 85.1061 6.47795C84.6347 7.09034 84.3421 7.6836 84.1714 8.08548C83.8625 7.63576 83.4439 7.09991 82.8953 6.57364C82.3548 6.05693 81.8346 5.68854 81.4039 5.4254C81.3023 5.32493 79.8393 3.81787 80.1684 2.01897C80.1806 1.94721 80.461 0.521482 81.286 0.306188C82.0703 0.105247 82.8669 1.16258 82.9807 1.31568V1.31089Z" fill="#B76567"/>
</svg>
