<svg width="489" height="173" viewBox="0 0 489 173" fill="none" xmlns="http://www.w3.org/2000/svg">
<path d="M50.6747 69.6613C59.5897 73.5827 85.8655 87.6533 85.8655 118.101C85.8655 157.315 58.8859 173 28.3872 173H6.09973C2.11145 173 0 170.463 0 166.541V6.45867C0 2.53733 1.64224 0 5.39592 0H35.1908C60.2935 0 76.0121 12.456 76.0121 27.9107C76.0121 41.7507 63.8126 56.9747 50.6747 69.6613ZM18.7684 82.8093C28.8564 74.736 55.6014 52.1307 55.6014 32.2933C55.6014 19.1453 47.6248 9.22667 31.4371 9.22667H24.1643C20.4107 9.22667 18.7684 11.764 18.7684 15.6853V82.8093ZM30.7333 163.312C48.3287 163.312 66.6279 147.627 66.6279 121.1C66.6279 94.5733 48.0941 82.5787 40.8213 78.6573C31.4371 86.7307 22.9913 92.728 18.7684 95.7267V156.853C18.7684 160.775 20.8799 163.312 24.8681 163.312H30.7333Z" fill="white"/>
<path d="M129.612 167.491C129.612 170.829 128.219 173 125.017 173H118.807C115.412 173 113.604 170.829 113.604 167.491V30.95C113.604 27.6121 115.412 25.4412 118.807 25.4412H125.017C128.219 25.4412 129.612 27.6121 129.612 30.95V167.491Z" fill="white"/>
<path d="M215.064 69.6613C223.979 73.5827 250.255 87.6533 250.255 118.101C250.255 157.315 223.275 173 192.776 173H170.489C166.501 173 164.389 170.463 164.389 166.541V6.45867C164.389 2.53733 166.031 0 169.785 0H199.58C224.683 0 240.401 12.456 240.401 27.9107C240.401 41.7507 228.202 56.9747 215.064 69.6613ZM183.158 82.8093C193.246 74.736 219.991 52.1307 219.991 32.2933C219.991 19.1453 212.014 9.22667 195.826 9.22667H188.554C184.8 9.22667 183.158 11.764 183.158 15.6853V82.8093ZM195.123 163.312C212.718 163.312 231.017 147.627 231.017 121.1C231.017 94.5733 212.483 82.5787 205.211 78.6573C195.826 86.7307 187.381 92.728 183.158 95.7267V156.853C183.158 160.775 185.269 163.312 189.257 163.312H195.123Z" fill="white"/>
<path d="M294.002 167.491C294.002 170.829 292.608 173 289.406 173H283.196C279.801 173 277.993 170.829 277.993 167.491V30.95C277.993 27.6121 279.801 25.4412 283.196 25.4412H289.406C292.608 25.4412 294.002 27.6121 294.002 30.95V167.491Z" fill="white"/>
<path d="M347.533 109.336V156.853C347.533 160.775 349.645 163.773 353.633 163.773H386.478C390.466 163.773 393.046 164.235 393.046 168.156C393.046 172.077 390.466 173 386.478 173H334.864C330.876 173 328.765 170.463 328.765 166.541V6.45867C328.765 2.53733 330.407 0 334.161 0H381.785C385.774 0 388.354 0.922666 388.354 4.844C388.354 8.76533 385.774 9.22667 381.785 9.22667H352.929C349.175 9.22667 347.533 11.764 347.533 15.6853V100.109H374.747C378.736 100.109 381.316 100.801 381.316 104.723C381.316 108.644 378.736 109.336 374.747 109.336H347.533Z" fill="white"/>
<path d="M443.487 109.336V156.853C443.487 160.775 445.598 163.773 449.586 163.773H482.431C486.419 163.773 489 164.235 489 168.156C489 172.077 486.419 173 482.431 173H430.818C426.83 173 424.718 170.463 424.718 166.541V6.45867C424.718 2.53733 426.36 0 430.114 0H477.739C481.727 0 484.308 0.922666 484.308 4.844C484.308 8.76533 481.727 9.22667 477.739 9.22667H448.883C445.129 9.22667 443.487 11.764 443.487 15.6853V100.109H470.701C474.689 100.109 477.27 100.801 477.27 104.723C477.27 108.644 474.689 109.336 470.701 109.336H443.487Z" fill="white"/>
<path d="M117.592 3.71794C119.386 5.71252 119.538 7.59856 120.339 7.55786C121.263 7.51715 121.111 5.04766 122.892 2.91739C124.396 1.11276 127.529 -0.719006 130.164 0.31221C133.076 1.46554 133.918 5.64468 133.339 8.41268C132.883 10.5972 131.489 12.0762 129.723 13.9622C127.736 16.0654 126.728 16.2961 124.81 18.3721C123.209 20.1088 122.215 21.7913 121.636 22.9311C120.587 21.6557 119.166 20.136 117.303 18.6434C115.467 17.178 113.701 16.1332 112.238 15.387C111.893 15.102 106.925 10.8279 108.043 5.72609C108.084 5.52256 109.036 1.47911 111.838 0.868523C114.501 0.298641 117.206 3.29731 117.592 3.7315V3.71794Z" fill="#B76567"/>
<path d="M281.788 3.71794C283.582 5.71252 283.734 7.59856 284.535 7.55786C285.459 7.51715 285.308 5.04766 287.088 2.91739C288.592 1.11276 291.725 -0.719006 294.361 0.31221C297.272 1.46554 298.114 5.64468 297.535 8.41268C297.079 10.5972 295.685 12.0762 293.919 13.9622C291.932 16.0654 290.924 16.2961 289.006 18.3721C287.405 20.1088 286.412 21.7913 285.832 22.9311C284.783 21.6557 283.362 20.136 281.499 18.6434C279.663 17.178 277.897 16.1332 276.434 15.387C276.089 15.102 271.121 10.8279 272.239 5.72609C272.28 5.52256 273.232 1.47911 276.034 0.868523C278.697 0.298641 281.402 3.29731 281.788 3.7315V3.71794Z" fill="#B76567"/>
</svg>
