<svg width="24" height="26" viewBox="0 0 24 26" fill="none" xmlns="http://www.w3.org/2000/svg">
<path d="M7.82617 6.21739V4.91304C7.82617 3.87524 8.26592 2.87994 9.04868 2.1461C9.83144 1.41227 10.8931 1 12.0001 1C13.1071 1 14.1687 1.41227 14.9515 2.1461C15.7342 2.87994 16.174 3.87524 16.174 4.91304V6.21739" stroke="#231F20" stroke-width="2" stroke-linecap="round"/>
<path d="M2.43413 23.3036C3.8241 24.9999 6.40942 24.9999 11.5812 24.9999H12.4175C17.5894 24.9999 20.1758 24.9999 21.5658 23.3036M2.43413 23.3036C1.04417 21.6061 1.52139 19.0305 2.47467 13.8771C3.15228 10.2145 3.4905 8.38198 4.77738 7.29963M21.5658 23.3036C22.9558 21.6061 22.4785 19.0305 21.5253 13.8771C20.8477 10.2145 20.5083 8.38198 19.2214 7.29963M19.2214 7.29963C17.9357 6.21729 16.0951 6.21729 12.4175 6.21729H11.5812C7.90363 6.21729 6.06425 6.21729 4.77738 7.29963" stroke="#231F20" stroke-width="2"/>
<path d="M4 7H19L21.5 15L22 23.5L12 25.5L2.5 23.5V15L4 7Z" fill="#231F20"/>
</svg>
