<svg width="24" height="27" viewBox="0 0 24 27" fill="none" xmlns="http://www.w3.org/2000/svg">
<path d="M7.82611 6.46739V5.16304C7.82611 4.12524 8.26586 3.12994 9.04862 2.3961C9.83138 1.66227 10.893 1.25 12 1.25C13.107 1.25 14.1687 1.66227 14.9514 2.3961C15.7342 3.12994 16.1739 4.12524 16.1739 5.16304V6.46739" stroke="#231F20" stroke-width="2" stroke-linecap="round"/>
<path d="M2.43419 23.5537C3.82416 25.25 6.40948 25.25 11.5813 25.25H12.4176C17.5894 25.25 20.1759 25.25 21.5659 23.5537M2.43419 23.5537C1.04423 21.8562 1.52145 19.2807 2.47474 14.1272C3.15234 10.4646 3.49057 8.6321 4.77744 7.54975M21.5659 23.5537C22.9558 21.8562 22.4786 19.2807 21.5253 14.1272C20.8477 10.4646 20.5083 8.6321 19.2215 7.54975M19.2215 7.54975C17.9357 6.46741 16.0952 6.46741 12.4176 6.46741H11.5813C7.90369 6.46741 6.06431 6.46741 4.77744 7.54975" stroke="#231F20" stroke-width="2"/>
</svg>
