<svg width="42" height="34" viewBox="0 0 42 34" fill="none" xmlns="http://www.w3.org/2000/svg">
<mask id="path-1-inside-1_600_943" fill="white">
<path d="M6.63158 0H35.3684C37.1272 0 38.814 0.716427 40.0577 1.99167C41.3013 3.26692 42 4.99653 42 6.8V27.2C42 29.0035 41.3013 30.7331 40.0577 32.0083C38.814 33.2836 37.1272 34 35.3684 34H6.63158C4.87278 34 3.18601 33.2836 1.94234 32.0083C0.698682 30.7331 0 29.0035 0 27.2V6.8C0 4.99653 0.698682 3.26692 1.94234 1.99167C3.18601 0.716427 4.87278 0 6.63158 0ZM6.63158 2.26667C5.52632 2.26667 4.55368 2.652 3.80211 3.332L21 14.7333L38.1979 3.332C37.4463 2.652 36.4737 2.26667 35.3684 2.26667H6.63158ZM21 17.476L2.4979 5.168C2.32105 5.66667 2.21053 6.23333 2.21053 6.8V27.2C2.21053 28.4023 2.67631 29.5554 3.50542 30.4056C4.33453 31.2557 5.45904 31.7333 6.63158 31.7333H35.3684C36.541 31.7333 37.6655 31.2557 38.4946 30.4056C39.3237 29.5554 39.7895 28.4023 39.7895 27.2V6.8C39.7895 6.23333 39.679 5.66667 39.5021 5.168L21 17.476Z"/>
</mask>
<path d="M6.63158 0V-4V0ZM42 6.8H46H42ZM42 27.2H46H42ZM35.3684 34V38V34ZM6.63158 34V38V34ZM0 27.2H-4H0ZM0 6.8H-4H0ZM3.80211 3.332L1.11845 0.365857C0.202492 1.19458 -0.279212 2.4 -0.186648 3.63175C-0.0940836 4.8635 0.562364 5.98338 1.59189 6.66591L3.80211 3.332ZM21 14.7333L18.7898 18.0672C20.1294 18.9554 21.8706 18.9554 23.2102 18.0672L21 14.7333ZM38.1979 3.332L40.4081 6.66591C41.4376 5.98338 42.0941 4.8635 42.1866 3.63175C42.2792 2.4 41.7975 1.19458 40.8815 0.365857L38.1979 3.332ZM21 17.476L18.7845 20.8064C20.1266 21.6992 21.8734 21.6992 23.2155 20.8064L21 17.476ZM2.4979 5.168L4.71336 1.83758C3.68709 1.15488 2.40338 0.98346 1.23393 1.37295C0.0644837 1.76244 -0.860084 2.66934 -1.27206 3.83106L2.4979 5.168ZM2.21053 27.2H-1.78947H2.21053ZM39.5021 5.168L43.2721 3.83106C42.8601 2.66934 41.9355 1.76244 40.7661 1.37295C39.5966 0.98346 38.3129 1.15488 37.2866 1.83758L39.5021 5.168ZM6.63158 4H35.3684V-4H6.63158V4ZM35.3684 4C36.0335 4 36.6923 4.26999 37.194 4.78442L42.9213 -0.801067C40.9357 -2.83713 38.2209 -4 35.3684 -4V4ZM37.194 4.78442C37.699 5.30225 38 6.02547 38 6.8H46C46 3.96759 44.9036 1.23159 42.9213 -0.801067L37.194 4.78442ZM38 6.8V27.2H46V6.8H38ZM38 27.2C38 27.9745 37.699 28.6978 37.194 29.2156L42.9213 34.8011C44.9036 32.7684 46 30.0324 46 27.2H38ZM37.194 29.2156C36.6923 29.73 36.0335 30 35.3684 30V38C38.2209 38 40.9357 36.8371 42.9213 34.8011L37.194 29.2156ZM35.3684 30H6.63158V38H35.3684V30ZM6.63158 30C5.96647 30 5.3077 29.73 4.80601 29.2156L-0.921323 34.8011C1.06431 36.8371 3.77908 38 6.63158 38V30ZM4.80601 29.2156C4.301 28.6977 4 27.9745 4 27.2H-4C-4 30.0324 -2.90364 32.7684 -0.921323 34.8011L4.80601 29.2156ZM4 27.2V6.8H-4V27.2H4ZM4 6.8C4 6.02548 4.301 5.30225 4.80601 4.78442L-0.921323 -0.801067C-2.90364 1.23159 -4 3.96758 -4 6.8H4ZM4.80601 4.78442C5.3077 4.26998 5.96647 4 6.63158 4V-4C3.77908 -4 1.06431 -2.83713 -0.921323 -0.801067L4.80601 4.78442ZM6.63158 -1.73333C4.55304 -1.73333 2.61909 -0.991863 1.11845 0.365857L6.48576 6.29814C6.50012 6.28514 6.50627 6.28302 6.51012 6.28155C6.51382 6.28014 6.54861 6.26667 6.63158 6.26667V-1.73333ZM1.59189 6.66591L18.7898 18.0672L23.2102 11.3994L6.01232 -0.00191012L1.59189 6.66591ZM23.2102 18.0672L40.4081 6.66591L35.9877 -0.00191015L18.7898 11.3994L23.2102 18.0672ZM40.8815 0.365857C39.3809 -0.991864 37.447 -1.73333 35.3684 -1.73333V6.26667C35.4514 6.26667 35.4862 6.28014 35.4899 6.28155C35.4937 6.28302 35.4999 6.28515 35.5142 6.29814L40.8815 0.365857ZM35.3684 -1.73333H6.63158V6.26667H35.3684V-1.73333ZM23.2155 14.1456L4.71336 1.83758L0.282427 8.49842L18.7845 20.8064L23.2155 14.1456ZM-1.27206 3.83106C-1.58513 4.71387 -1.78947 5.73227 -1.78947 6.8H6.21053C6.21053 6.77423 6.2133 6.72973 6.22396 6.67082C6.2346 6.61204 6.25029 6.55447 6.26785 6.50494L-1.27206 3.83106ZM-1.78947 6.8V27.2H6.21053V6.8H-1.78947ZM-1.78947 27.2C-1.78947 29.4313 -0.926002 31.5907 0.641755 33.1983L6.36909 27.6128C6.27863 27.5201 6.21053 27.3734 6.21053 27.2H-1.78947ZM0.641755 33.1983C2.21283 34.8093 4.36534 35.7333 6.63158 35.7333V27.7333C6.55275 27.7333 6.45623 27.7022 6.36909 27.6128L0.641755 33.1983ZM6.63158 35.7333H35.3684V27.7333H6.63158V35.7333ZM35.3684 35.7333C37.6347 35.7333 39.7872 34.8093 41.3582 33.1983L35.6309 27.6128C35.5438 27.7022 35.4473 27.7333 35.3684 27.7333V35.7333ZM41.3582 33.1983C42.926 31.5907 43.7895 29.4313 43.7895 27.2H35.7895C35.7895 27.3734 35.7214 27.5201 35.6309 27.6128L41.3582 33.1983ZM43.7895 27.2V6.8H35.7895V27.2H43.7895ZM43.7895 6.8C43.7895 5.73229 43.5851 4.71389 43.2721 3.83106L35.7322 6.50494C35.7497 6.55446 35.7654 6.61202 35.776 6.6708C35.7867 6.72972 35.7895 6.77422 35.7895 6.8H43.7895ZM37.2866 1.83758L18.7845 14.1456L23.2155 20.8064L41.7176 8.49842L37.2866 1.83758Z" fill="white" mask="url(#path-1-inside-1_600_943)"/>
</svg>
