<svg width="24" height="22" viewBox="0 0 24 22" fill="none" xmlns="http://www.w3.org/2000/svg">
<path d="M2.51973 21.5H21.4803C23.4191 21.5 24.6278 19.438 23.6583 17.7958L14.1781 1.73166C13.2086 0.0894458 10.7914 0.0894458 9.82193 1.73166L0.341656 17.7958C-0.627774 19.438 0.580866 21.5 2.51973 21.5ZM12 12.8568C11.3076 12.8568 10.741 12.3011 10.741 11.622V9.15251C10.741 8.47339 11.3076 7.91776 12 7.91776C12.6925 7.91776 13.259 8.47339 13.259 9.15251V11.622C13.259 12.3011 12.6925 12.8568 12 12.8568ZM13.259 17.7958H10.741V15.3263H13.259V17.7958Z" fill="#FF0000"/>
</svg>
