<svg width="36" height="36" viewBox="0 0 36 36" fill="none" xmlns="http://www.w3.org/2000/svg">
<path d="M18 35C15.7675 35 13.5569 34.5603 11.4944 33.706C9.43185 32.8516 7.55778 31.5994 5.97918 30.0208C4.40059 28.4422 3.14838 26.5682 2.29405 24.5056C1.43972 22.4431 1 20.2325 1 18C1 15.7675 1.43972 13.5569 2.29405 11.4944C3.14838 9.43185 4.40059 7.55778 5.97918 5.97918C7.55778 4.40059 9.43185 3.14838 11.4944 2.29405C13.5569 1.43972 15.7675 1 18 1C22.5087 1 26.8327 2.79107 30.0208 5.97919C33.2089 9.1673 35 13.4913 35 18C35 22.5087 33.2089 26.8327 30.0208 30.0208C26.8327 33.2089 22.5087 35 18 35ZM18 35V15.5714C18 14.2832 18.5117 13.0478 19.4226 12.1369C20.3335 11.226 21.5689 10.7143 22.8571 10.7143H24.0714M11.9286 20.4286H24.0714" stroke="white" stroke-width="2" stroke-linecap="round" stroke-linejoin="round"/>
</svg>
