<svg width="106" height="80" viewBox="0 0 106 80" fill="none" xmlns="http://www.w3.org/2000/svg">
<path d="M102.038 49.2002C100.902 48.3254 99.5788 47.7253 98.172 47.447C96.7652 47.1686 95.3131 47.2195 93.9293 47.5957L88.4975 48.8457C99.9292 39.0367 105.72 29.3549 105.72 20.0005C105.72 8.97328 96.8565 0.000630518 85.9657 0.000630518C82.6805 -0.0256304 79.4407 0.768813 76.5403 2.31188C73.64 3.85494 71.1708 6.09779 69.3568 8.83692C67.5428 6.09779 65.0736 3.85494 62.1732 2.31188C59.2728 0.768813 56.033 -0.0256304 52.7478 0.000630518C41.857 0.000630518 32.9935 8.97328 32.9935 20.0005C32.9935 25.3868 34.8616 30.6549 38.8161 36.364C35.6193 36.483 32.5865 37.8101 30.3298 40.0776L19.5117 50.9093H5.72095C4.27433 50.9093 2.88695 51.484 1.86404 52.5069C0.841118 53.5298 0.266449 54.9172 0.266449 56.3638V74.5455C0.266449 75.9921 0.841118 77.3795 1.86404 78.4024C2.88695 79.4253 4.27433 80 5.72095 80H52.9933C53.1465 80.001 53.2992 79.9827 53.4478 79.9454L82.5385 72.6728C82.6313 72.6486 82.7225 72.6182 82.8112 72.5818L100.457 65.0637L100.557 65.0183C101.978 64.3076 103.196 63.2468 104.094 61.9357C104.992 60.6246 105.542 59.1064 105.692 57.5241C105.842 55.9417 105.586 54.3473 104.949 52.8911C104.312 51.4349 103.315 50.1647 102.052 49.2002H102.038ZM52.7478 3.63696C55.9268 3.59725 59.0453 4.50684 61.7045 6.24937C64.3636 7.9919 66.4424 10.4881 67.675 13.4187C67.812 13.7522 68.045 14.0374 68.3444 14.2381C68.6439 14.4388 68.9963 14.546 69.3568 14.546C69.7173 14.546 70.0697 14.4388 70.3691 14.2381C70.6686 14.0374 70.9016 13.7522 71.0386 13.4187C72.2711 10.4881 74.3499 7.9919 77.0091 6.24937C79.6682 4.50684 82.7868 3.59725 85.9657 3.63696C94.702 3.63696 102.084 11.1324 102.084 20.0005C102.084 29.6686 94.752 40.0003 80.2931 50.732L71.5158 52.7275C72.4837 51.0726 72.9935 49.19 72.9931 47.273C72.9931 44.3797 71.8438 41.605 69.7979 39.5591C67.7521 37.5133 64.9774 36.364 62.0841 36.364H43.307C38.7616 30.4549 36.6298 25.2277 36.6298 20.0005C36.6298 11.1324 44.0115 3.63696 52.7478 3.63696ZM3.90278 74.5455V56.3638C3.90278 55.8816 4.09434 55.4191 4.43531 55.0782C4.77628 54.7372 5.23874 54.5456 5.72095 54.5456H18.4481V76.3636H5.72095C5.23874 76.3636 4.77628 76.1721 4.43531 75.8311C4.09434 75.4901 3.90278 75.0277 3.90278 74.5455ZM98.9611 61.741L81.5021 69.1819L52.7706 76.3636H22.0844V53.482L32.9025 42.6639C33.7444 41.8169 34.746 41.1453 35.8492 40.688C36.9525 40.2308 38.1355 39.9971 39.3298 40.0003H62.0841C64.0129 40.0003 65.8628 40.7665 67.2267 42.1304C68.5906 43.4943 69.3568 45.3441 69.3568 47.273C69.3568 49.2018 68.5906 51.0516 67.2267 52.4155C65.8628 53.7794 64.0129 54.5456 62.0841 54.5456H49.3569C48.8747 54.5456 48.4123 54.7372 48.0713 55.0782C47.7303 55.4191 47.5388 55.8816 47.5388 56.3638C47.5388 56.846 47.7303 57.3085 48.0713 57.6494C48.4123 57.9904 48.8747 58.182 49.3569 58.182H63.9023C64.0399 58.1826 64.1772 58.1673 64.3114 58.1365L94.7657 51.132H94.8384C96.203 50.7702 97.6532 50.9251 98.9106 51.5671C100.168 52.2091 101.144 53.2929 101.651 54.6105C102.158 55.928 102.161 57.3865 101.659 58.7059C101.156 60.0253 100.184 61.1126 98.9293 61.7592L98.9611 61.741Z" fill="white"/>
</svg>
