<svg width="30" height="26" viewBox="0 0 30 26" fill="none" xmlns="http://www.w3.org/2000/svg">
<path d="M26.2545 13.8659L15.0125 25L3.77056 13.8659C3.02905 13.1444 2.44497 12.2771 2.05511 11.3187C1.66524 10.3603 1.47804 9.3316 1.50528 8.29731C1.53253 7.26302 1.77363 6.24557 2.21341 5.30904C2.65319 4.37251 3.28211 3.53718 4.06059 2.85566C4.83906 2.17413 5.75021 1.66117 6.73667 1.34908C7.72312 1.03699 8.76351 0.932535 9.79232 1.04228C10.8211 1.15203 11.8161 1.47361 12.7145 1.98677C13.6129 2.49993 14.3954 3.19355 15.0125 4.02395C15.6324 3.19958 16.4158 2.51201 17.3136 2.0043C18.2114 1.49659 19.2043 1.17966 20.2302 1.07334C21.2562 0.96702 22.293 1.07361 23.2758 1.38642C24.2587 1.69924 25.1664 2.21156 25.9421 2.89131C26.7178 3.57106 27.3449 4.40361 27.7841 5.33686C28.2233 6.2701 28.4651 7.28396 28.4944 8.31496C28.5237 9.34596 28.3399 10.3719 27.9545 11.3286C27.5691 12.2853 26.9904 13.1522 26.2545 13.8749" fill="#B76567"/>
<path d="M26.2545 13.8659L15.0125 25L3.77056 13.8659C3.02905 13.1444 2.44497 12.2771 2.05511 11.3187C1.66524 10.3603 1.47804 9.3316 1.50528 8.29731C1.53253 7.26302 1.77363 6.24557 2.21341 5.30904C2.65319 4.37251 3.28211 3.53718 4.06059 2.85566C4.83906 2.17413 5.75021 1.66117 6.73667 1.34908C7.72312 1.03699 8.76351 0.932535 9.79232 1.04228C10.8211 1.15203 11.8161 1.47361 12.7145 1.98677C13.6129 2.49993 14.3954 3.19355 15.0125 4.02395C15.6324 3.19958 16.4158 2.51201 17.3136 2.0043C18.2114 1.49659 19.2043 1.17966 20.2302 1.07334C21.2562 0.96702 22.293 1.07361 23.2758 1.38642C24.2587 1.69924 25.1664 2.21156 25.9421 2.89131C26.7178 3.57106 27.3449 4.40361 27.7841 5.33686C28.2233 6.2701 28.4651 7.28396 28.4944 8.31496C28.5237 9.34596 28.3399 10.3719 27.9545 11.3286C27.5691 12.2853 26.9904 13.1522 26.2545 13.8749" stroke="#B76567" stroke-width="2" stroke-linecap="round" stroke-linejoin="round"/>
</svg>
