<svg width="30" height="27" viewBox="0 0 30 27" fill="none" xmlns="http://www.w3.org/2000/svg">
<path d="M26.2545 14.3659L15.0125 25.5L3.7705 14.3659C3.02899 13.6444 2.44491 12.7771 2.05505 11.8187C1.66518 10.8603 1.47798 9.8316 1.50522 8.79731C1.53247 7.76302 1.77357 6.74558 2.21335 5.80904C2.65313 4.87251 3.28205 4.03718 4.06053 3.35566C4.839 2.67413 5.75015 2.16117 6.73661 1.84908C7.72306 1.53699 8.76345 1.43253 9.79226 1.54228C10.8211 1.65203 11.816 1.97361 12.7144 2.48677C13.6129 2.99993 14.3953 3.69355 15.0125 4.52395C15.6323 3.69958 16.4157 3.01201 17.3135 2.5043C18.2113 1.99659 19.2042 1.67966 20.2302 1.57334C21.2561 1.46702 22.2929 1.57361 23.2758 1.88642C24.2586 2.19924 25.1663 2.71156 25.942 3.39131C26.7178 4.07106 27.3448 4.90361 27.784 5.83686C28.2232 6.7701 28.465 7.78396 28.4943 8.81496C28.5237 9.84596 28.3399 10.8719 27.9545 11.8286C27.5691 12.7853 26.9903 13.6522 26.2545 14.3749" stroke="#231F20" stroke-width="2" stroke-linecap="round" stroke-linejoin="round"/>
</svg>
