<svg width="36" height="36" viewBox="0 0 36 36" fill="none" xmlns="http://www.w3.org/2000/svg">
<path d="M26.5 8.28571H28.9286M10.7143 1H25.2857C27.8621 1 30.333 2.02347 32.1548 3.84525C33.9765 5.66703 35 8.1379 35 10.7143V25.2857C35 27.8621 33.9765 30.333 32.1548 32.1548C30.333 33.9765 27.8621 35 25.2857 35H10.7143C8.1379 35 5.66703 33.9765 3.84525 32.1548C2.02347 30.333 1 27.8621 1 25.2857V10.7143C1 8.1379 2.02347 5.66703 3.84525 3.84525C5.66703 2.02347 8.1379 1 10.7143 1ZM18 25.2857C16.0677 25.2857 14.2146 24.5181 12.8482 23.1518C11.4819 21.7854 10.7143 19.9323 10.7143 18C10.7143 16.0677 11.4819 14.2146 12.8482 12.8482C14.2146 11.4819 16.0677 10.7143 18 10.7143C19.9323 10.7143 21.7854 11.4819 23.1518 12.8482C24.5181 14.2146 25.2857 16.0677 25.2857 18C25.2857 19.9323 24.5181 21.7854 23.1518 23.1518C21.7854 24.5181 19.9323 25.2857 18 25.2857Z" stroke="white" stroke-width="2" stroke-linecap="round"/>
</svg>
