<svg width="64" height="84" viewBox="0 0 64 84" fill="none" xmlns="http://www.w3.org/2000/svg">
<path fill-rule="evenodd" clip-rule="evenodd" d="M32 81.995L35.1469 78.4491C38.7178 74.3596 41.9295 70.4795 44.7872 66.789L47.1462 63.677C56.9959 50.406 61.9233 39.873 61.9233 32.0879C61.9233 15.4705 48.5276 2 32 2C15.4723 2 2.07666 15.4705 2.07666 32.0879C2.07666 39.873 7.00403 50.406 16.8538 63.677L19.2127 66.789C23.2895 72.0125 27.5547 77.0813 32 81.995Z" stroke="white" stroke-width="4" stroke-linecap="round" stroke-linejoin="round"/>
<path d="M32 44.3914C38.8859 44.3914 44.468 38.8093 44.468 31.9234C44.468 25.0375 38.8859 19.4553 32 19.4553C25.1141 19.4553 19.5319 25.0375 19.5319 31.9234C19.5319 38.8093 25.1141 44.3914 32 44.3914Z" stroke="white" stroke-width="4" stroke-linecap="round" stroke-linejoin="round"/>
</svg>
