<svg width="50" height="33" viewBox="0 0 50 33" fill="none" xmlns="http://www.w3.org/2000/svg">
<g clip-path="url(#clip0_386_1634)">
<path d="M18.2227 3.37793H31.7285V28.2089H18.2227V3.37793Z" fill="#FF5F00"/>
<path d="M19.0799 15.7936C19.0799 10.7485 21.3951 6.27355 24.9537 3.37799C22.3385 1.27222 19.0371 0 15.4355 0C6.90293 0 0 7.06314 0 15.7936C0 24.5238 6.90293 31.5872 15.4354 31.5872C19.0369 31.5872 22.3383 30.3149 24.9537 28.209C21.3951 25.3574 19.0799 20.8387 19.0799 15.7936Z" fill="#EB001B"/>
<path d="M49.9508 15.7936C49.9508 24.5238 43.0478 31.5872 34.5154 31.5872C30.9139 31.5872 27.6125 30.3149 24.9971 28.209C28.5986 25.3136 30.8711 20.8387 30.8711 15.7936C30.8711 10.7485 28.5557 6.27355 24.9971 3.37799C27.6123 1.27222 30.9139 0 34.5154 0C43.0478 0 49.9508 7.1071 49.9508 15.7936Z" fill="#F79E1B"/>
</g>
<defs>
<clipPath id="clip0_386_1634">
<rect width="50" height="33" fill="white"/>
</clipPath>
</defs>
</svg>
