<svg width="76" height="80" viewBox="0 0 76 80" fill="none" xmlns="http://www.w3.org/2000/svg">
<path d="M72.9011 18.8304L72.901 18.8303L39.9209 0.985308C39.3323 0.667015 38.6717 0.5 38 0.5C37.3284 0.5 36.6678 0.667015 36.0791 0.985309L3.09906 18.8303L3.09895 18.8304C2.46978 19.1706 1.94552 19.6713 1.5805 20.2795C1.21553 20.8876 1.02298 21.5808 1.02252 22.287C1.02252 22.287 1.02252 22.2872 1.02252 22.2873L0.522522 22.287L72.9011 18.8304ZM72.9011 18.8304C73.5303 19.1706 74.0545 19.6713 74.4195 20.2795C74.7845 20.8876 74.9771 21.5811 74.9775 22.2873V57.7101C74.9771 58.4163 74.7845 59.1098 74.4195 59.7179C74.0545 60.3261 73.5303 60.8268 72.9011 61.167L72.901 61.1671L39.9208 79.0122L39.9199 79.0126C39.3321 79.3322 38.6716 79.5 38 79.5C37.3284 79.5 36.668 79.3322 36.0801 79.0126L36.0793 79.0122L3.09906 61.1671L3.09895 61.167C2.46978 60.8268 1.94552 60.3261 1.5805 59.7179C1.21556 59.1099 1.02301 58.4165 1.02252 57.7104L72.9011 18.8304ZM71.4692 21.1786L72.2821 20.7389L71.4693 20.299L38.9611 2.70775C38.9604 2.70738 38.9597 2.70702 38.959 2.70665C38.6654 2.54515 38.3354 2.46058 38 2.46058C37.6647 2.46058 37.3346 2.54515 37.041 2.70664C37.0403 2.70701 37.0397 2.70738 37.039 2.70775L23.4905 10.0432L22.6782 10.483L23.4906 10.9226L56.4645 28.7642C56.4654 28.7647 56.4663 28.7652 56.4672 28.7657C56.5174 28.794 56.565 28.8266 56.6094 28.8629L56.8689 29.0755L57.164 28.9159L71.4692 21.1786ZM37.7623 39.1422L38 39.2707L38.2377 39.1422L54.0645 30.5901L54.878 30.1505L54.0647 29.7104L20.8334 11.732L20.5954 11.6033L20.3575 11.7321L4.53071 20.2991L3.71782 20.7391L4.53096 21.1786L37.7623 39.1422ZM3.02072 57.703L3.02072 57.7042C3.02154 58.0601 3.11906 58.409 3.30262 58.7142C3.48615 59.0194 3.74876 59.2696 4.06243 59.4392L36.2629 76.8693L37.0009 77.2688V76.4296V41.2765V40.9785L36.7388 40.8367L3.75859 22.9991L3.02072 22.6V23.4389L3.02072 57.703ZM39.7369 76.8472L71.1998 59.838V59.8456L71.9376 59.4466C72.2513 59.277 72.5139 59.0268 72.6974 58.7216C72.881 58.4164 72.9785 58.0675 72.9793 57.7116V57.7104V23.4389V22.6L72.2415 22.9991L57.2505 31.1068L56.9883 31.2485V31.5466V48.8879C56.9883 49.1463 56.8845 49.3953 56.6978 49.5799C56.5108 49.7646 56.2561 49.8694 55.9892 49.8694C55.7223 49.8694 55.4676 49.7646 55.2807 49.5799C55.0939 49.3953 54.9901 49.1463 54.9901 48.8879V33.1688V32.33L54.2523 32.729L39.2613 40.8367L38.9991 40.9785V41.2765V76.4074V77.246L39.7369 76.8472Z" fill="white" stroke="white"/>
</svg>
