<svg width="85" height="84" viewBox="0 0 85 84" fill="none" xmlns="http://www.w3.org/2000/svg">
<path d="M24.1394 23.6394L2.5 2M81.1439 56.5932L57.0932 80.6439C56.2238 81.5123 55.0452 82 53.8164 82C52.5876 82 51.409 81.5123 50.5395 80.6439L10.2902 40.3945C10.0504 40.1653 9.86482 39.8853 9.74715 39.575C9.62948 39.2648 9.58265 38.9322 9.6101 38.6016L13.2579 14.86C13.3004 14.3166 13.5355 13.8063 13.9209 13.4209C14.3063 13.0355 14.8166 12.8004 15.36 12.7579L39.1016 9.1101C39.4322 9.08265 39.7648 9.12948 40.075 9.24715C40.3853 9.36482 40.6653 9.55036 40.8945 9.7902L81.1439 50.0395C82.0123 50.909 82.5 52.0876 82.5 53.3164C82.5 54.5452 82.0123 55.7238 81.1439 56.5932Z" stroke="white" stroke-width="4" stroke-linecap="round" stroke-linejoin="round"/>
</svg>
