<svg width="118" height="135" viewBox="0 0 118 135" fill="none" xmlns="http://www.w3.org/2000/svg">
<path d="M37.3994 32V25.25C37.3994 19.8794 39.6751 14.7287 43.7259 10.9311C47.7767 7.13348 53.2707 5 58.9994 5C64.7281 5 70.2221 7.13348 74.2729 10.9311C78.3237 14.7287 80.5994 19.8794 80.5994 25.25V32" stroke="#B76567" stroke-width="10" stroke-linecap="round"/>
<path d="M9.49681 120.422C16.6899 129.2 30.0689 129.2 56.8331 129.2H61.1609C87.9251 129.2 101.31 129.2 108.503 120.422M9.49681 120.422C2.30375 111.637 4.77337 98.3087 9.7066 71.6395C13.2132 52.6855 14.9635 43.2024 21.6231 37.6012M108.503 120.422C115.696 111.637 113.227 98.3087 108.293 71.6395C104.787 52.6855 103.03 43.2024 96.3709 37.6012M96.3709 37.6012C89.7173 32.0001 80.1925 32.0001 61.1609 32.0001H56.8331C37.8015 32.0001 28.2827 32.0001 21.6231 37.6012" stroke="#B76567" stroke-width="10"/>
<path d="M37 80L55.5 95.5L81.5 66" stroke="#B76567" stroke-width="10" stroke-linecap="round"/>
</svg>
