<svg width="17" height="19" viewBox="0 0 17 19" fill="none" xmlns="http://www.w3.org/2000/svg">
<path d="M0.708334 2.92308H4.25V2.19231C4.25 1.61087 4.47388 1.05325 4.8724 0.642112C5.27091 0.230975 5.81141 0 6.375 0H10.625C11.1886 0 11.7291 0.230975 12.1276 0.642112C12.5261 1.05325 12.75 1.61087 12.75 2.19231V2.92308H16.2917C16.4795 2.92308 16.6597 3.00007 16.7925 3.13711C16.9254 3.27416 17 3.46003 17 3.65385C17 3.84766 16.9254 4.03353 16.7925 4.17058C16.6597 4.30762 16.4795 4.38462 16.2917 4.38462H15.5833V17.5385C15.5833 17.9261 15.4341 18.2978 15.1684 18.5719C14.9027 18.846 14.5424 19 14.1667 19H2.83333C2.45761 19 2.09728 18.846 1.8316 18.5719C1.56592 18.2978 1.41667 17.9261 1.41667 17.5385V4.38462H0.708334C0.520472 4.38462 0.340304 4.30762 0.207466 4.17058C0.0746279 4.03353 0 3.84766 0 3.65385C0 3.46003 0.0746279 3.27416 0.207466 3.13711C0.340304 3.00007 0.520472 2.92308 0.708334 2.92308ZM11.3333 2.19231C11.3333 1.9985 11.2587 1.81262 11.1259 1.67558C10.993 1.53853 10.8129 1.46154 10.625 1.46154H6.375C6.18714 1.46154 6.00697 1.53853 5.87413 1.67558C5.74129 1.81262 5.66667 1.9985 5.66667 2.19231V2.92308H11.3333V2.19231ZM2.83333 17.5385H14.1667V4.38462H2.83333V17.5385ZM9.91667 8.03846V13.8846C9.91667 14.0784 9.99129 14.2643 10.1241 14.4013C10.257 14.5384 10.4371 14.6154 10.625 14.6154C10.8129 14.6154 10.993 14.5384 11.1259 14.4013C11.2587 14.2643 11.3333 14.0784 11.3333 13.8846V8.03846C11.3333 7.84465 11.2587 7.65878 11.1259 7.52173C10.993 7.38468 10.8129 7.30769 10.625 7.30769C10.4371 7.30769 10.257 7.38468 10.1241 7.52173C9.99129 7.65878 9.91667 7.84465 9.91667 8.03846ZM5.66667 8.03846V13.8846C5.66667 14.0784 5.74129 14.2643 5.87413 14.4013C6.00697 14.5384 6.18714 14.6154 6.375 14.6154C6.56286 14.6154 6.74303 14.5384 6.87587 14.4013C7.00871 14.2643 7.08333 14.0784 7.08333 13.8846V8.03846C7.08333 7.84465 7.00871 7.65878 6.87587 7.52173C6.74303 7.38468 6.56286 7.30769 6.375 7.30769C6.18714 7.30769 6.00697 7.38468 5.87413 7.52173C5.74129 7.65878 5.66667 7.84465 5.66667 8.03846Z" fill="#231F20"/>
</svg>
