<svg width="84" height="27" viewBox="0 0 84 27" fill="none" xmlns="http://www.w3.org/2000/svg">
<path d="M43.4428 8.77865C43.3949 12.3861 46.8103 14.399 49.3831 15.596C52.0265 16.8239 52.9144 17.6114 52.9039 18.7097C52.8842 20.3903 50.7954 21.1321 48.8408 21.1609C45.4305 21.2113 43.4477 20.2819 41.8714 19.579L40.6429 25.0669C42.2244 25.7626 45.153 26.3694 48.1898 26.396C55.3183 26.396 59.9819 23.0367 60.0072 17.8282C60.0351 11.2179 50.4299 10.8521 50.4955 7.89746C50.5181 7.00156 51.4136 6.04552 53.3758 5.80243C54.347 5.67964 57.0281 5.58566 60.0679 6.922L61.2609 1.61236C59.6262 1.04412 57.5252 0.499996 54.9094 0.499996C48.1999 0.499996 43.4808 3.90506 43.4428 8.77865ZM72.725 0.957346C71.4233 0.957346 70.3264 1.68221 69.8368 2.79457L59.6541 26.006H66.7774L68.1949 22.2661H76.8994L77.7217 26.006H84L78.5213 0.957346H72.725ZM73.7215 7.72392L75.7772 17.13H70.1472L73.7215 7.72392ZM34.8062 0.957659L29.1913 26.0057H35.9792L41.5915 0.957031H34.8062M24.7646 0.957031L17.6994 18.0065L14.8414 3.51004C14.5061 1.89178 13.1818 0.957346 11.7111 0.957346H0.161766L0 1.68472C2.37103 2.1759 5.06494 2.96812 6.69703 3.81578C7.69584 4.33359 7.98066 4.78624 8.30878 6.0167L13.7219 26.006H20.895L31.8924 0.957346L24.7646 0.957031Z" fill="url(#paint0_linear_386_1633)"/>
<defs>
<linearGradient id="paint0_linear_386_1633" x1="3861.82" y1="78.3434" x2="3933.38" y2="-2581.4" gradientUnits="userSpaceOnUse">
<stop stop-color="#222357"/>
<stop offset="1" stop-color="#254AA5"/>
</linearGradient>
</defs>
</svg>
