<svg width="44" height="40" viewBox="0 0 44 40" fill="none" xmlns="http://www.w3.org/2000/svg">
<path d="M38.6765 21.2831L22.0185 37.7812L5.36047 21.2831C4.26172 20.2139 3.39625 18.9288 2.81856 17.5087C2.24087 16.0886 1.96348 14.5643 2.00385 13.0317C2.04422 11.4991 2.40148 9.99148 3.05313 8.60376C3.70478 7.21604 4.6367 5.97827 5.79022 4.96841C6.94374 3.95854 8.29385 3.19846 9.75555 2.73601C11.2173 2.27357 12.7589 2.11878 14.2833 2.2814C15.8078 2.44402 17.2821 2.92053 18.6133 3.68091C19.9446 4.44129 21.104 5.46908 22.0185 6.69955C22.937 5.47802 24.0977 4.45921 25.4281 3.70689C26.7584 2.95458 28.2297 2.48496 29.7499 2.32742C31.2701 2.16988 32.8064 2.32782 34.2628 2.79134C35.7191 3.25486 37.0641 4.014 38.2136 5.02123C39.363 6.02847 40.2922 7.26212 40.943 8.64497C41.5937 10.0278 41.952 11.5301 41.9955 13.0578C42.039 14.5855 41.7666 16.1058 41.1955 17.5234C40.6244 18.941 39.7669 20.2255 38.6765 21.2964" fill="white"/>
<path d="M38.6765 21.2831L22.0185 37.7812L5.36047 21.2831C4.26172 20.2139 3.39625 18.9288 2.81856 17.5087C2.24087 16.0886 1.96348 14.5643 2.00385 13.0317C2.04422 11.4991 2.40148 9.99148 3.05313 8.60376C3.70478 7.21604 4.6367 5.97827 5.79022 4.96841C6.94374 3.95854 8.29385 3.19846 9.75555 2.73601C11.2173 2.27357 12.7589 2.11878 14.2833 2.2814C15.8078 2.44402 17.2821 2.92053 18.6133 3.68091C19.9446 4.44129 21.104 5.46908 22.0185 6.69955C22.937 5.47802 24.0977 4.45921 25.4281 3.70689C26.7584 2.95458 28.2297 2.48496 29.7499 2.32742C31.2701 2.16988 32.8064 2.32782 34.2628 2.79134C35.7191 3.25486 37.0641 4.014 38.2136 5.02123C39.363 6.02847 40.2922 7.26212 40.943 8.64497C41.5937 10.0278 41.952 11.5301 41.9955 13.0578C42.039 14.5855 41.7666 16.1058 41.1955 17.5234C40.6244 18.941 39.7669 20.2255 38.6765 21.2964" stroke="white" stroke-width="3" stroke-linecap="round" stroke-linejoin="round"/>
</svg>
